<svg width="300" height="300" viewBox="0 0 300 300" fill="none" xmlns="http://www.w3.org/2000/svg">
<path d="M65.625 261.429C120 227.143 134.062 124.286 143.438 21.4286L138.75 261.429H65.625Z" stroke="#006600" stroke-width="8" stroke-linecap="round" stroke-linejoin="round"/>
<path d="M65.625 261.429C120 227.143 134.062 124.286 143.438 21.4286L138.75 261.429H65.625Z" fill="#006600"/>
<path d="M234.375 261.429C180 227.143 165.938 124.286 156.562 21.4286L161.25 261.429H234.375Z" stroke="#FF0000" stroke-width="8" stroke-linecap="round" stroke-linejoin="round"/>
<path d="M234.375 261.429C180 227.143 165.938 124.286 156.562 21.4286L161.25 261.429H234.375Z" fill="#FF0000"/>
<path d="M65.625 261.429C120 227.143 134.062 124.286 143.438 21.4286L138.75 261.429H65.625Z" stroke="#006600" stroke-width="8" stroke-linecap="round" stroke-linejoin="round"/>
<path d="M65.625 261.429C120 227.143 134.062 124.286 143.438 21.4286L138.75 261.429H65.625Z" fill="#006600"/>
<path d="M234.375 261.429C180 227.143 165.938 124.286 156.562 21.4286L161.25 261.429H234.375Z" stroke="#FF0000" stroke-width="8" stroke-linecap="round" stroke-linejoin="round"/>
<path d="M234.375 261.429C180 227.143 165.938 124.286 156.562 21.4286L161.25 261.429H234.375Z" fill="#FF0000"/>
</svg>
